{"title":"Haunters 2010 BRRip 720p x264 AAC - PRiSTiNE [P2PDL]","uid":8254713,"size":639576247,"categoryP":"video","categoryS":"hd___movies","magnet":"?xt=urn:btih:adbe063de6a1a3480b423482c838b945deeca190&amp;dn=Haunters+2010+BRRip+720p+x264+AAC+-+PRiSTiNE+%5BP2PDL%5D&amp;tr=udp%3A%2F%2Ftracker.openbittorrent.com%3A80&amp;tr=udp%3A%2F%2Fopen.demonii.com%3A1337&amp;tr=udp%3A%2F%2Ftracker.coppersurfer.tk%3A6969&amp;tr=udp%3A%2F%2Fexodus.desync.com%3A6969","seeders":5,"leechers":3,"uploader":"ValidusVyto","files":-1,"time":1363239183,"description":"_________________________  Visit us at _________________________\n  &lt;a href=&quot;\nhttp://p2pdl.com&quot; rel=&quot;nofollow&quot; target=&quot;_NEW&quot;&gt;\nhttp://p2pdl.com&lt;/a&gt;  ____________________________ &lt;a href=&quot; http://p2pdl.com&quot; rel=&quot;nofollow&quot; target=&quot;_NEW&quot;&gt; http://p2pdl.com&lt;/a&gt;\n\n\nHaunters 2010 BRRip 720p x264 AAC - PRiSTiNE\n\n\nOriginal Title: Cho-neung-ryeok-ja\nGenre: Action | Thriller\nPlot: Cho-In can control other people's minds when they are within his field of sight.Except one man. \nDirector: Min-suk Kim\nStars: Dong-won Kang, Duek-mun Choi, Jeong Eun-Chae.\nRated: N/a\n\n\nInfo: &lt;a href=&quot;\nhttp://www.imdb.com/title/tt1900891/&quot; rel=&quot;nofollow&quot; target=&quot;_NEW&quot;&gt;\nhttp://www.imdb.com/title/tt1900891/&lt;/a&gt;\n\nTrailer:\n\n\nFormat                         : MPEG-4\nFile size                      : 602 MiB\nDuration                       : 1h 47mn\nOverall bit rate               : 782 Kbps\nVideo Format                   : AVC\nVideo Bit rate                 : 699 Kbps\nWidth                          : 1 280 pixels\nHeight                         : 542 pixels\nDisplay aspect ratio           : 2.35:1\nFrame rate mode                : Constant\nFrame rate                     : 25.000 fps\nStream size                    : 537 MiB (89%)\nWriting library                : x264 core 129 r2245\nAudio Format                   : AAC\nAudio Bit rate                 : 79.9 Kbps\nChannel(s)                     : 2 channels\nChannel positions              : Front: L R\nSampling rate                  : 48.0 KHz / 24.0 KHz\nStream size                    : 61.5 MiB (10%)\nLanguage                       : Korean\nSubtitle                       : Yes(English)\nSource                         : Blu-ray.720p.x264.DTS-MySilu(Thanks)\n\nScreenshots:\n &lt;a href=&quot;\nhttp://cdn.piczend.com/images/ySinAwex/1363233853_tinybayhaunters2010brri.jpg&quot; rel=&quot;nofollow&quot; target=&quot;_NEW&quot;&gt;\nhttp://cdn.piczend.com/images/ySinAwex/1363233853_tinybayhaunters2010brri.jpg&lt;/a&gt;\n\n\n----------------------------------------------------------------------------------------------------\n\n\nEncoded using revolutionary 10bit encoding, which enables us to provide you more crispier \nand sharper images at small sizes, just make sure you follow our instructions without a fault.\nRecommend to you to use latest version of VLC player. Install K-Lite Codec Pack or shark007 codecs\nin case of any kind of problem in playback (For non-VLC Media Player users). Alternatively, install\nCore AVC codecs, the fastest decoder that there is coupled with Community Center Codec Pack and play\non Windows Media Player Classic.\n\nEncoder Notes: Encoder Notes: Looking For Early Access To Anything You Can Provide DVDScr, R5, DVDR, BluRay, Direct\nAudio, Music Releases and Seedboxes. We require dedicated servers, so as to do more and fast releases of movies.\nIf You Got anything to offer contact us at &quot;&lt;a class=&quot;__cf_email__&quot; href=&quot;/cdn-cgi/l/email-protection&quot; data-cfemail=&quot;4e3e3c290e263b3d26602d2123&quot;&gt;[email&amp;#160;protected]&lt;/a&gt;&lt;script cf-hash='f9e31' type=&quot;text/javascript&quot;&gt;\n/* &lt;![CDATA[ */!function(){try{var t=&quot;currentScript&quot;in document?document.currentScript:function(){for(var t=document.getElementsByTagName(&quot;script&quot;),e=t.length;e--;)if(t[e].getAttribute(&quot;cf-hash&quot;))return t[e]}();if(t&amp;&amp;t.previousSibling){var e,r,n,i,c=t.previousSibling,a=c.getAttribute(&quot;data-cfemail&quot;);if(a){for(e=&quot;&quot;,r=parseInt(a.substr(0,2),16),n=2;a.length-n;n+=2)i=parseInt(a.substr(n,2),16)^r,e+=String.fromCharCode(i);e=document.createTextNode(e),c.parentNode.replaceChild(e,c)}}}catch(u){}}();/* ]]&gt; */&lt;/script&gt;&quot;.","torrent":{"xt":"urn:btih:adbe063de6a1a3480b423482c838b945deeca190","amp;dn":"Haunters+2010+BRRip+720p+x264+AAC+-+PRiSTiNE+%5BP2PDL%5D","amp;tr":["udp%3A%2F%2Ftracker.openbittorrent.com%3A80","udp%3A%2F%2Fopen.demonii.com%3A1337","udp%3A%2F%2Ftracker.coppersurfer.tk%3A6969","udp%3A%2F%2Fexodus.desync.com%3A6969"],"infoHash":"adbe063de6a1a3480b423482c838b945deeca190","infoHashBuffer":{"type":"Buffer","data":[173,190,6,61,230,161,163,72,11,66,52,130,200,56,185,69,222,236,161,144]},"announce":[],"urlList":[]}}